<svg width="185" height="49" viewBox="0 0 185 49" fill="none" xmlns="http://www.w3.org/2000/svg">
<path d="M4.06421 3.24674C6.19011 3.24674 7.20095 4.30968 7.39895 5.852H5.86705C5.68989 5.07042 5.07505 4.60147 4.07463 4.60147C2.772 4.60147 2.00084 5.43516 2.00084 7.15463C2.00084 9.13463 2.91789 9.79116 4.10589 9.79116C5.09589 9.79116 5.68989 9.33263 5.87747 8.54063H7.39895C7.1801 10.2393 6.00253 11.1459 4.06421 11.1459C1.74032 11.1459 0.427263 9.83284 0.427263 7.22758C0.427263 4.92453 1.56316 3.24674 4.06421 3.24674ZM15.736 10.9271V11H13.9436C13.8498 10.5102 13.7665 9.94747 13.6831 9.27011C13.5893 8.426 13.3288 8.17589 12.3388 8.17589H11.1195V11H9.58761V3.39263H12.4013C12.8286 3.39263 13.1412 3.40305 13.5163 3.44474C14.5897 3.56979 15.5172 4.11168 15.5172 5.53937C15.5172 6.49811 15.0066 7.12337 14.1833 7.45684C14.7981 7.69653 15.1525 8.15505 15.2358 8.92621C15.3192 9.70779 15.3921 10.1351 15.5172 10.6561L15.736 10.9271ZM11.1195 6.87326H12.4326C13.3288 6.87326 13.954 6.63358 13.954 5.78947C13.954 5.01832 13.5372 4.70568 12.4847 4.70568H11.1195V6.87326ZM23.2315 3.39263V4.72653H19.4174V6.52937H23.0127V7.81116H19.4174V9.66611H23.3149V11H17.896V3.39263H23.2315ZM29.7083 3.39263L32.3969 11H30.7817L30.146 9.16589H27.3427L26.6966 11H25.1022L27.8429 3.39263H29.7083ZM27.7075 7.87368H29.8021L28.7704 4.82032L27.7075 7.87368ZM39.2176 3.39263V4.72653H36.8416V11H35.3201V4.72653H32.9441V3.39263H39.2176ZM46.569 3.39263V4.72653H42.7549V6.52937H46.3502V7.81116H42.7549V9.66611H46.6524V11H41.2334V3.39263H46.569ZM51.591 3.39263C51.9661 3.39263 52.1329 3.39263 52.4663 3.42389C53.9253 3.56979 55.5927 4.24716 55.5927 7.08168C55.5927 10.0308 53.9253 10.7916 52.5289 10.9583C52.1537 11 51.9661 11 51.591 11H48.8294V3.39263H51.591ZM50.3509 9.66611H51.8307C53.2792 9.66611 54.0295 8.88453 54.0295 7.10253C54.0295 5.46642 53.3209 4.72653 51.8307 4.72653H50.3509V9.66611ZM63.8585 3.39263C64.2128 3.39263 64.4421 3.39263 64.8172 3.42389C66.1407 3.55937 66.8702 4.24716 66.8702 5.35179C66.8702 6.15421 66.4325 6.78989 65.6197 7.06084C66.6826 7.26926 67.1932 7.88411 67.1932 8.91579C67.1932 10.2497 66.172 10.8541 65.0465 10.9687C64.713 11 64.4212 11 64.0461 11H61.2532V3.39263H63.8585ZM62.7539 9.69737H64.2337C65.0569 9.69737 65.6197 9.40558 65.6197 8.75947C65.6197 8.05084 65.0673 7.79032 64.0982 7.79032H62.7539V9.69737ZM62.7539 6.53979H63.9731C64.6713 6.53979 65.3174 6.34179 65.3174 5.63316C65.3174 4.97663 64.8381 4.69526 64.0044 4.69526H62.7539V6.53979ZM75.649 3.39263L72.7207 8.01958V11H71.1992V8.01958L68.2709 3.39263H70.0738L72.0017 6.60232L73.8879 3.39263H75.649Z" fill="#999999"/>
<g clip-path="url(#clip0_573_6539)">
<path d="M176.898 26.6699C180.576 26.6699 182.73 28.359 182.873 31.5948H179.235C179.093 30.4552 178.178 29.7836 176.756 29.7836C175.597 29.7836 174.744 30.3127 174.744 31.086C174.744 32.0222 175.516 32.3274 177.65 32.7141C181.247 33.3246 183.239 34.7085 183.239 37.4762C183.239 40.8951 180.129 42.0958 176.999 42.0958C173.301 42.0958 170.76 40.5085 170.598 37.0488H174.236C174.398 38.2902 175.455 38.9821 177.04 38.9821C178.422 38.9821 179.499 38.5141 179.499 37.6593C179.499 36.7436 178.768 36.2551 176.39 35.8481C173.077 35.2987 170.943 33.9962 171.004 31.1878C171.045 28.2166 173.707 26.6699 176.898 26.6699Z" fill="white"/>
<path d="M170.678 26.9534V30.1281H166.187V41.8095H162.508V30.1281H158.017V26.9534H170.678Z" fill="white"/>
<path d="M157.602 26.9534V30.1281H150.408V32.8755H157.176V35.806H150.408V38.6347H157.745V41.8095H146.73V26.9534H157.602Z" fill="white"/>
<path d="M139.397 26.6699C143.076 26.6699 145.23 28.359 145.372 31.5948H141.735C141.592 30.4552 140.678 29.7836 139.255 29.7836C138.097 29.7836 137.243 30.3127 137.243 31.086C137.243 32.0222 138.016 32.3274 140.149 32.7141C143.747 33.3246 145.738 34.7085 145.738 37.4762C145.738 40.8951 142.629 42.0958 139.499 42.0958C135.8 42.0958 133.26 40.5085 133.097 37.0488H136.735C136.898 38.2902 137.955 38.9821 139.54 38.9821C140.922 38.9821 141.999 38.5141 141.999 37.6593C141.999 36.7436 141.267 36.2551 138.889 35.8481C135.577 35.2987 133.443 33.9962 133.504 31.1878C133.545 28.2166 136.207 26.6699 139.397 26.6699Z" fill="white"/>
<path d="M126.204 26.6699C129.882 26.6699 132.037 28.359 132.179 31.5948H128.541C128.399 30.4552 127.484 29.7836 126.062 29.7836C124.903 29.7836 124.05 30.3127 124.05 31.086C124.05 32.0222 124.822 32.3274 126.956 32.7141C130.553 33.3246 132.545 34.7085 132.545 37.4762C132.545 40.8951 129.435 42.0958 126.306 42.0958C122.607 42.0958 120.066 40.5085 119.904 37.0488H123.542C123.704 38.2902 124.761 38.9821 126.346 38.9821C127.728 38.9821 128.805 38.5141 128.805 37.6593C128.805 36.7436 128.074 36.2551 125.696 35.8481C122.383 35.2987 120.249 33.9962 120.31 31.1878C120.351 28.2166 123.013 26.6699 126.204 26.6699Z" fill="white"/>
<path d="M115.234 26.9534L120.233 41.8095H116.331L115.336 38.7976H110.235L109.198 41.8095H105.377L110.478 26.9534H115.234ZM110.946 35.8467H114.665L112.836 30.2706L110.946 35.8467Z" fill="white"/>
<path d="M90.7795 34.3015C90.7795 37.7611 92.0802 38.9821 94.4986 38.9821C96.0431 38.9821 97.5064 38.2088 97.5064 36.4994V36.2551H94.2954V33.4467H101.185V41.8109H98.299L97.8925 39.6944C97.8112 40.3457 97.669 40.6509 97.4251 40.8951C96.7951 41.6685 95.2302 42.0958 93.7467 42.0958C89.4586 42.0958 86.9792 39.7148 86.9792 34.4643C86.9792 29.9667 89.1334 26.6699 94.3157 26.6699C98.8477 26.6699 100.819 28.7661 101.164 31.9001H97.5064C97.2219 30.618 96.1854 29.9057 94.2954 29.9057C92.1005 29.9057 90.7795 31.1674 90.7795 34.3015Z" fill="white"/>
<path d="M85.8673 26.9534V41.8095H81.5589L78.104 35.2362C77.4943 33.9948 76.905 32.7127 76.3359 31.4509C76.4375 33.0586 76.4782 34.4832 76.4782 35.806V41.8095H73.003V26.9534H77.2911L80.624 33.1604C81.2947 34.4628 81.9247 35.7856 82.5344 37.1084C82.4327 35.5007 82.3921 33.9337 82.3921 32.6313V26.9534H85.8673Z" fill="white"/>
<path d="M71.3457 26.9534V41.8095H67.6673V26.9534H71.3457Z" fill="white"/>
<path d="M67.2292 26.9534L61.8843 41.8095H57.332L52.0074 26.9534H56.2142L59.7301 38.187L63.2459 26.9534H67.2292Z" fill="white"/>
<path d="M51.526 26.9534V41.8095H47.8476V26.9534H51.526Z" fill="white"/>
<path d="M40.1995 26.9534V38.6347H47.089V41.8095H36.5211V26.9534H40.1995Z" fill="white"/>
<g clip-path="url(#clip1_573_6539)">
<path d="M10.6 20.842H16.8238V27.0659H10.6V20.842Z" fill="#FFDB20"/>
<path d="M21.2 22.6897L25.5761 27.0659L21.2 31.442L16.8238 27.0659L21.2 22.6897Z" fill="#FFDB20"/>
<path d="M6.22385 22.6897L1.8477 27.0659L6.22385 31.442L10.6 27.0659L6.22385 22.6897Z" fill="#FFDB20"/>
<path d="M10.6 48.2659H16.8238V42.042H10.6V48.2659Z" fill="#FFDB20"/>
<path d="M21.2 46.4182L25.5761 42.042L21.2 37.6659L16.8238 42.042L21.2 46.4182Z" fill="#FFDB20"/>
<path d="M6.22385 46.4182L1.8477 42.042L6.22385 37.6659L10.6 42.042L6.22385 46.4182Z" fill="#FFDB20"/>
<path d="M27.4238 31.442V37.6659H21.2V31.442H27.4238Z" fill="#FFDB20"/>
<path d="M0 31.442L2.72052e-07 37.6659H6.22385V31.442H0Z" fill="#FFDB20"/>
<path d="M11.0738 31.811L13.8162 34.5534L11.0738 37.2958L8.33142 34.5534L11.0738 31.811Z" fill="white"/>
<path d="M16.5586 31.811L19.301 34.5534L16.5586 37.2958L13.8162 34.5534L16.5586 31.811Z" fill="white"/>
</g>
</g>
<defs>
<clipPath id="clip0_573_6539">
<rect width="184.8" height="27.7895" fill="white" transform="translate(0 20.842)"/>
</clipPath>
<clipPath id="clip1_573_6539">
<rect width="27.4238" height="27.4238" fill="white" transform="translate(0 20.842)"/>
</clipPath>
</defs>
</svg>
